<mxfile host="app.diagrams.net" modified="2023-11-03T21:23:02.622Z" agent="Mozilla/5.0 (Windows NT 10.0; Win64; x64) AppleWebKit/537.36 (KHTML, like Gecko) Chrome/119.0.0.0 Safari/537.36" etag="kcRETHAnThIjhUybcHcu" version="22.0.8" type="device">
  <diagram name="Страница — 1" id="xObNlYxC0pyLlmPZUUlj">
    <mxGraphModel dx="794" dy="493" grid="1" gridSize="10" guides="1" tooltips="1" connect="1" arrows="1" fold="1" page="1" pageScale="1" pageWidth="827" pageHeight="1169" math="0" shadow="0">
      <root>
        <mxCell id="0" />
        <mxCell id="1" parent="0" />
        <mxCell id="bxaY4e3qonn_e3rGcJ8Z-4" style="edgeStyle=orthogonalEdgeStyle;rounded=0;orthogonalLoop=1;jettySize=auto;html=1;exitX=0.5;exitY=1;exitDx=0;exitDy=0;entryX=0.5;entryY=0;entryDx=0;entryDy=0;" edge="1" parent="1" source="bxaY4e3qonn_e3rGcJ8Z-1" target="bxaY4e3qonn_e3rGcJ8Z-3">
          <mxGeometry relative="1" as="geometry" />
        </mxCell>
        <mxCell id="bxaY4e3qonn_e3rGcJ8Z-1" value="start" style="ellipse;whiteSpace=wrap;html=1;" vertex="1" parent="1">
          <mxGeometry x="310" y="30" width="120" height="80" as="geometry" />
        </mxCell>
        <mxCell id="bxaY4e3qonn_e3rGcJ8Z-8" style="edgeStyle=orthogonalEdgeStyle;rounded=0;orthogonalLoop=1;jettySize=auto;html=1;exitX=0.5;exitY=1;exitDx=0;exitDy=0;entryX=0.5;entryY=0;entryDx=0;entryDy=0;" edge="1" parent="1" source="bxaY4e3qonn_e3rGcJ8Z-3" target="bxaY4e3qonn_e3rGcJ8Z-5">
          <mxGeometry relative="1" as="geometry" />
        </mxCell>
        <mxCell id="bxaY4e3qonn_e3rGcJ8Z-3" value="array&lt;br&gt;array.length" style="rounded=0;whiteSpace=wrap;html=1;" vertex="1" parent="1">
          <mxGeometry x="310" y="170" width="120" height="60" as="geometry" />
        </mxCell>
        <mxCell id="bxaY4e3qonn_e3rGcJ8Z-10" style="edgeStyle=orthogonalEdgeStyle;rounded=0;orthogonalLoop=1;jettySize=auto;html=1;exitX=0.5;exitY=1;exitDx=0;exitDy=0;entryX=0.5;entryY=0;entryDx=0;entryDy=0;" edge="1" parent="1" source="bxaY4e3qonn_e3rGcJ8Z-5" target="bxaY4e3qonn_e3rGcJ8Z-9">
          <mxGeometry relative="1" as="geometry" />
        </mxCell>
        <mxCell id="bxaY4e3qonn_e3rGcJ8Z-30" style="edgeStyle=orthogonalEdgeStyle;rounded=0;orthogonalLoop=1;jettySize=auto;html=1;exitX=0;exitY=0.5;exitDx=0;exitDy=0;" edge="1" parent="1" source="bxaY4e3qonn_e3rGcJ8Z-5">
          <mxGeometry relative="1" as="geometry">
            <mxPoint x="190" y="335" as="targetPoint" />
          </mxGeometry>
        </mxCell>
        <mxCell id="bxaY4e3qonn_e3rGcJ8Z-5" value="i=1, array.length, 1" style="shape=hexagon;perimeter=hexagonPerimeter2;whiteSpace=wrap;html=1;fixedSize=1;" vertex="1" parent="1">
          <mxGeometry x="310" y="300" width="120" height="70" as="geometry" />
        </mxCell>
        <mxCell id="bxaY4e3qonn_e3rGcJ8Z-12" style="edgeStyle=orthogonalEdgeStyle;rounded=0;orthogonalLoop=1;jettySize=auto;html=1;exitX=0.5;exitY=1;exitDx=0;exitDy=0;" edge="1" parent="1" source="bxaY4e3qonn_e3rGcJ8Z-9">
          <mxGeometry relative="1" as="geometry">
            <mxPoint x="370" y="510" as="targetPoint" />
          </mxGeometry>
        </mxCell>
        <mxCell id="bxaY4e3qonn_e3rGcJ8Z-14" style="edgeStyle=orthogonalEdgeStyle;rounded=0;orthogonalLoop=1;jettySize=auto;html=1;entryX=0.5;entryY=0;entryDx=0;entryDy=0;" edge="1" parent="1" source="bxaY4e3qonn_e3rGcJ8Z-9">
          <mxGeometry relative="1" as="geometry">
            <mxPoint x="370" y="540" as="targetPoint" />
          </mxGeometry>
        </mxCell>
        <mxCell id="bxaY4e3qonn_e3rGcJ8Z-9" value="j=1, arraylength, 1" style="shape=hexagon;perimeter=hexagonPerimeter2;whiteSpace=wrap;html=1;fixedSize=1;" vertex="1" parent="1">
          <mxGeometry x="310" y="410" width="120" height="70" as="geometry" />
        </mxCell>
        <mxCell id="bxaY4e3qonn_e3rGcJ8Z-11" style="edgeStyle=orthogonalEdgeStyle;rounded=0;orthogonalLoop=1;jettySize=auto;html=1;exitX=0.625;exitY=1;exitDx=0;exitDy=0;entryX=0.694;entryY=1.025;entryDx=0;entryDy=0;entryPerimeter=0;" edge="1" parent="1" source="bxaY4e3qonn_e3rGcJ8Z-5" target="bxaY4e3qonn_e3rGcJ8Z-5">
          <mxGeometry relative="1" as="geometry" />
        </mxCell>
        <mxCell id="bxaY4e3qonn_e3rGcJ8Z-25" value="" style="edgeStyle=orthogonalEdgeStyle;rounded=0;orthogonalLoop=1;jettySize=auto;html=1;" edge="1" parent="1" source="bxaY4e3qonn_e3rGcJ8Z-17" target="bxaY4e3qonn_e3rGcJ8Z-24">
          <mxGeometry relative="1" as="geometry" />
        </mxCell>
        <mxCell id="bxaY4e3qonn_e3rGcJ8Z-27" value="" style="edgeStyle=orthogonalEdgeStyle;rounded=0;orthogonalLoop=1;jettySize=auto;html=1;" edge="1" parent="1" source="bxaY4e3qonn_e3rGcJ8Z-17" target="bxaY4e3qonn_e3rGcJ8Z-26">
          <mxGeometry relative="1" as="geometry" />
        </mxCell>
        <mxCell id="bxaY4e3qonn_e3rGcJ8Z-17" value="true&amp;nbsp; &amp;nbsp; &amp;nbsp; j&amp;gt;j+1&amp;nbsp; &amp;nbsp; &amp;nbsp; &amp;nbsp; &amp;nbsp;false" style="rhombus;whiteSpace=wrap;html=1;" vertex="1" parent="1">
          <mxGeometry x="270" y="540" width="200" height="80" as="geometry" />
        </mxCell>
        <mxCell id="bxaY4e3qonn_e3rGcJ8Z-29" style="edgeStyle=orthogonalEdgeStyle;rounded=0;orthogonalLoop=1;jettySize=auto;html=1;" edge="1" parent="1" source="bxaY4e3qonn_e3rGcJ8Z-24">
          <mxGeometry relative="1" as="geometry">
            <mxPoint x="190" y="330" as="targetPoint" />
          </mxGeometry>
        </mxCell>
        <mxCell id="bxaY4e3qonn_e3rGcJ8Z-24" value="j=j+1&lt;br&gt;j+1=j" style="whiteSpace=wrap;html=1;" vertex="1" parent="1">
          <mxGeometry x="130" y="550" width="120" height="60" as="geometry" />
        </mxCell>
        <mxCell id="bxaY4e3qonn_e3rGcJ8Z-26" value="end" style="ellipse;whiteSpace=wrap;html=1;" vertex="1" parent="1">
          <mxGeometry x="480" y="660" width="80" height="80" as="geometry" />
        </mxCell>
      </root>
    </mxGraphModel>
  </diagram>
</mxfile>
